<?xml version="1.0" encoding="UTF-8" standalone="no"?>
<!-- Generator: Adobe Illustrator 19.0.0, SVG Export Plug-In . SVG Version: 6.00 Build 0)  -->

<svg
   xmlns:dc="http://purl.org/dc/elements/1.1/"
   xmlns:cc="http://creativecommons.org/ns#"
   xmlns:rdf="http://www.w3.org/1999/02/22-rdf-syntax-ns#"
   xmlns:svg="http://www.w3.org/2000/svg"
   xmlns="http://www.w3.org/2000/svg"
   xmlns:sodipodi="http://sodipodi.sourceforge.net/DTD/sodipodi-0.dtd"
   xmlns:inkscape="http://www.inkscape.org/namespaces/inkscape"
   version="1.1"
   id="Layer_1"
   x="0px"
   y="0px"
   viewBox="0 0 72.000003 72.000003"
   xml:space="preserve"
   sodipodi:docname="snorkel_small.svg"
   inkscape:version="0.92.3 (2405546, 2018-03-11)"
   width="72"
   height="72"><metadata
   id="metadata3835"><rdf:RDF><cc:Work
       rdf:about=""><dc:format>image/svg+xml</dc:format><dc:type
         rdf:resource="http://purl.org/dc/dcmitype/StillImage" /><dc:title></dc:title></cc:Work></rdf:RDF></metadata><defs
   id="defs3833" /><sodipodi:namedview
   pagecolor="#ffffff"
   bordercolor="#666666"
   borderopacity="1"
   objecttolerance="10"
   gridtolerance="10"
   guidetolerance="10"
   inkscape:pageopacity="0"
   inkscape:pageshadow="2"
   inkscape:window-width="1853"
   inkscape:window-height="1025"
   id="namedview3831"
   showgrid="false"
   inkscape:zoom="1.6484344"
   inkscape:cx="256.00049"
   inkscape:cy="134.67324"
   inkscape:window-x="67"
   inkscape:window-y="27"
   inkscape:window-maximized="1"
   inkscape:current-layer="g3796" />
<g
   id="g3798"
   transform="matrix(0.13129028,0,0,0.12285197,3.5611092,4.2474742)"
   style="fill:#cccccc">
	<g
   id="g3796"
   style="fill:#cccccc">
		<path
   d="m 471.896,242.794 h -5.737 c -3.337,-20.006 -11.331,-39.039 -23.357,-55.45 V 21.156 c 0,-28.193 -42.672,-28.223 -42.672,0 V 149.962 C 381.286,139.677 360.072,134.195 338.014,134.195 H 173.983 c -64.381,0 -117.966,47.069 -128.174,108.601 H 40.1 c -11.783,0 -21.336,9.553 -21.336,21.336 0,11.783 9.553,21.336 21.336,21.336 h 5.714 c 9.943,60.506 62.56,108.602 128.169,108.602 h 36.997 c 6.286,0 12.251,-2.771 16.305,-7.574 L 256,352.473 l 28.716,34.022 c 4.054,4.803 10.019,7.574 16.305,7.574 39.075,0 65.014,2.789 99.113,-15.784 v 40.492 c 0,11.765 -9.57,21.336 -21.336,21.336 h -63.459 c -6.057,-17.001 -22.308,-29.206 -41.361,-29.206 h -35.951 c -24.205,0 -43.897,19.692 -43.897,43.897 v 13.301 c 0,24.205 19.693,43.897 43.897,43.897 h 35.951 c 19.057,0 35.31,-12.21 41.364,-29.216 h 63.456 c 35.296,0 64.008,-28.714 64.008,-64.008 v -77.871 c 12.031,-16.409 20.022,-35.436 23.359,-55.438 h 5.737 c 11.783,0 21.336,-9.553 21.336,-21.336 -0.005,-11.786 -9.558,-21.339 -21.342,-21.339 z M 275.199,468.101 c 0,0.676 -0.55,1.225 -1.225,1.225 h -35.951 c -0.676,0 -1.225,-0.549 -1.225,-1.225 V 454.8 c 0,-0.676 0.55,-1.225 1.225,-1.225 h 35.951 c 0.676,0 1.225,0.549 1.225,1.225 z M 425.277,264.168 c -0.021,47.813 -38.738,87.226 -87.263,87.226 H 310.93 l -38.627,-45.766 c -8.522,-10.099 -24.097,-10.088 -32.61,0 l -38.627,45.766 h -27.084 c -48.224,0 -87.283,-39.046 -87.263,-87.302 0.02,-48.101 39.159,-87.227 87.263,-87.227 h 164.032 c 48.575,0 87.242,39.422 87.263,87.226 0,0.013 -10e-4,0.026 -10e-4,0.038 0,0.012 10e-4,0.026 10e-4,0.039 z"
   id="path3794"
   inkscape:connector-curvature="0"
   style="fill:#ffffff" />
	<path
   style="fill:#ffffff;stroke-width:4.77662325"
   d="m 220.68496,507.6471 c -25.6015,-11.04115 -33.15285,-53.24723 -13.82349,-77.26246 9.37695,-11.65013 15.17964,-13.86758 40.86265,-15.61528 31.35179,-2.13345 56.824,6.67671 62.14453,21.49415 1.95645,5.44861 11.72746,7.14873 41.08542,7.14873 34.56598,0 39.2566,-1.12614 45.71138,-10.9746 7.2335,-11.03663 10.19415,-53.26497 3.72743,-53.16522 -1.90599,0.0293 -13.67236,3.36251 -26.1475,7.40691 -12.47514,4.04441 -35.26827,7.35347 -50.6514,7.35347 -26.64246,0 -28.90923,-0.98581 -47.78165,-20.7799 L 256,352.473 l -20.49488,21.49579 -20.49488,21.49579 -38.59702,-2.57338 c -28.95225,-1.93034 -44.48435,-5.76164 -62.15724,-15.33229 -27.660928,-14.97963 -55.008185,-47.08772 -62.320219,-73.16944 -3.454528,-12.32218 -8.273553,-18.98519 -14.446958,-19.97508 -21.664308,-3.4738 -21.664308,-34.0625 0,-37.5363 6.173405,-0.98989 10.99243,-7.6529 14.446958,-19.97507 7.256333,-25.88302 34.47192,-58.00002 62.499839,-73.75576 23.45574,-13.18551 24.99568,-13.36523 128.69132,-15.01851 85.47078,-1.36271 109.6171,-0.22384 130.08716,6.13574 13.82461,4.29496 26.37508,7.80903 27.88994,7.80903 1.51485,0 2.75429,-32.17776 2.75429,-71.506123 V 9.0612814 l 11.61143,-3.1144571 c 23.34025,-6.26040025 25.35314,1.3035981 25.35314,95.2715257 0,83.71297 0.36629,87.03396 12.70658,115.19381 8.29921,18.9384 16.13582,29.92176 22.59321,31.6654 18.77768,5.07037 18.51699,30.1529 -0.36598,35.21777 -18.39269,4.93335 -31.84126,46.23332 -34.72695,106.64492 -2.2627,47.36638 -3.68505,54.04559 -14.06861,66.06416 -17.40934,20.15065 -37.10549,26.91139 -78.40132,26.91139 -22.02001,0 -37.11298,2.03766 -37.11298,5.01052 0,2.75579 -6.75759,9.41371 -15.01686,14.79537 -15.97238,10.40746 -56.86747,13.0667 -75.74504,4.92541 z m 53.79733,-44.48308 c 0,-8.4128 -3.08039,-9.87588 -20.79258,-9.87588 -17.71219,0 -20.79257,1.46308 -20.79257,9.87588 0,8.4128 3.08038,9.87589 20.79257,9.87589 17.71219,0 20.79258,-1.46309 20.79258,-9.87589 z M 225.77235,327.37055 c 13.00803,-14.93728 26.47852,-27.1587 29.93443,-27.1587 3.45592,0 16.8914,12.23936 29.85664,27.19856 23.02302,26.5638 24.15916,27.19762 48.68262,27.15869 16.07879,-0.026 32.39099,-3.8069 45.35546,-10.51397 60.83912,-31.47465 60.83912,-125.34313 0,-156.81778 -18.80977,-9.73109 -27.59947,-10.46642 -123.90519,-10.36566 -117.75821,0.12324 -130.76128,3.24674 -155.02187,37.23876 -11.602061,16.2559 -13.325326,22.92062 -13.325326,51.53579 0,28.61517 1.723265,35.27989 13.325326,51.53579 16.99159,23.80726 44.26415,37.09958 76.40482,37.23876 24.45294,0.1059 25.5986,-0.53056 48.69309,-27.05024 z"
   id="path172"
   inkscape:connector-curvature="0" /></g>
</g>
<g
   id="g3800"
   transform="translate(0,-440.00098)">
</g>
<g
   id="g3802"
   transform="translate(0,-440.00098)">
</g>
<g
   id="g3804"
   transform="translate(0,-440.00098)">
</g>
<g
   id="g3806"
   transform="translate(0,-440.00098)">
</g>
<g
   id="g3808"
   transform="translate(0,-440.00098)">
</g>
<g
   id="g3810"
   transform="translate(0,-440.00098)">
</g>
<g
   id="g3812"
   transform="translate(0,-440.00098)">
</g>
<g
   id="g3814"
   transform="translate(0,-440.00098)">
</g>
<g
   id="g3816"
   transform="translate(0,-440.00098)">
</g>
<g
   id="g3818"
   transform="translate(0,-440.00098)">
</g>
<g
   id="g3820"
   transform="translate(0,-440.00098)">
</g>
<g
   id="g3822"
   transform="translate(0,-440.00098)">
</g>
<g
   id="g3824"
   transform="translate(0,-440.00098)">
</g>
<g
   id="g3826"
   transform="translate(0,-440.00098)">
</g>
<g
   id="g3828"
   transform="translate(0,-440.00098)">
</g>
</svg>