<?xml version="1.0" encoding="UTF-8" standalone="no"?>
<!-- Generator: Adobe Illustrator 19.0.0, SVG Export Plug-In . SVG Version: 6.00 Build 0)  -->

<svg
   xmlns:dc="http://purl.org/dc/elements/1.1/"
   xmlns:cc="http://creativecommons.org/ns#"
   xmlns:rdf="http://www.w3.org/1999/02/22-rdf-syntax-ns#"
   xmlns:svg="http://www.w3.org/2000/svg"
   xmlns="http://www.w3.org/2000/svg"
   xmlns:sodipodi="http://sodipodi.sourceforge.net/DTD/sodipodi-0.dtd"
   xmlns:inkscape="http://www.inkscape.org/namespaces/inkscape"
   version="1.1"
   id="Layer_1"
   x="0px"
   y="0px"
   viewBox="0 0 512.001 512.001"
   style="enable-background:new 0 0 512.001 512.001;"
   xml:space="preserve"
   sodipodi:docname="snorkel.svg"
   inkscape:version="0.92.3 (2405546, 2018-03-11)"><metadata
   id="metadata3835"><rdf:RDF><cc:Work
       rdf:about=""><dc:format>image/svg+xml</dc:format><dc:type
         rdf:resource="http://purl.org/dc/dcmitype/StillImage" /></cc:Work></rdf:RDF></metadata><defs
   id="defs3833" /><sodipodi:namedview
   pagecolor="#ffffff"
   bordercolor="#666666"
   borderopacity="1"
   objecttolerance="10"
   gridtolerance="10"
   guidetolerance="10"
   inkscape:pageopacity="0"
   inkscape:pageshadow="2"
   inkscape:window-width="1853"
   inkscape:window-height="1025"
   id="namedview3831"
   showgrid="false"
   inkscape:zoom="1.6484344"
   inkscape:cx="256.00049"
   inkscape:cy="134.67324"
   inkscape:window-x="67"
   inkscape:window-y="27"
   inkscape:window-maximized="1"
   inkscape:current-layer="Layer_1" />
<g
   id="g3798"
   transform="matrix(0.15174699,0,0,0.14062445,100.84569,343.54684)"
   style="fill:#cccccc">
	<g
   id="g3796"
   style="fill:#cccccc">
		<path
   d="m 471.896,242.794 h -5.737 c -3.337,-20.006 -11.331,-39.039 -23.357,-55.45 V 21.156 c 0,-28.193 -42.672,-28.223 -42.672,0 V 149.962 C 381.286,139.677 360.072,134.195 338.014,134.195 H 173.983 c -64.381,0 -117.966,47.069 -128.174,108.601 H 40.1 c -11.783,0 -21.336,9.553 -21.336,21.336 0,11.783 9.553,21.336 21.336,21.336 h 5.714 c 9.943,60.506 62.56,108.602 128.169,108.602 h 36.997 c 6.286,0 12.251,-2.771 16.305,-7.574 L 256,352.473 l 28.716,34.022 c 4.054,4.803 10.019,7.574 16.305,7.574 39.075,0 65.014,2.789 99.113,-15.784 v 40.492 c 0,11.765 -9.57,21.336 -21.336,21.336 h -63.459 c -6.057,-17.001 -22.308,-29.206 -41.361,-29.206 h -35.951 c -24.205,0 -43.897,19.692 -43.897,43.897 v 13.301 c 0,24.205 19.693,43.897 43.897,43.897 h 35.951 c 19.057,0 35.31,-12.21 41.364,-29.216 h 63.456 c 35.296,0 64.008,-28.714 64.008,-64.008 v -77.871 c 12.031,-16.409 20.022,-35.436 23.359,-55.438 h 5.737 c 11.783,0 21.336,-9.553 21.336,-21.336 -0.005,-11.786 -9.558,-21.339 -21.342,-21.339 z M 275.199,468.101 c 0,0.676 -0.55,1.225 -1.225,1.225 h -35.951 c -0.676,0 -1.225,-0.549 -1.225,-1.225 V 454.8 c 0,-0.676 0.55,-1.225 1.225,-1.225 h 35.951 c 0.676,0 1.225,0.549 1.225,1.225 z M 425.277,264.168 c -0.021,47.813 -38.738,87.226 -87.263,87.226 H 310.93 l -38.627,-45.766 c -8.522,-10.099 -24.097,-10.088 -32.61,0 l -38.627,45.766 h -27.084 c -48.224,0 -87.283,-39.046 -87.263,-87.302 0.02,-48.101 39.159,-87.227 87.263,-87.227 h 164.032 c 48.575,0 87.242,39.422 87.263,87.226 0,0.013 -10e-4,0.026 -10e-4,0.038 0,0.012 10e-4,0.026 10e-4,0.039 z"
   id="path3794"
   inkscape:connector-curvature="0"
   style="fill:#cccccc" />
	</g>
</g>
<g
   id="g3800">
</g>
<g
   id="g3802">
</g>
<g
   id="g3804">
</g>
<g
   id="g3806">
</g>
<g
   id="g3808">
</g>
<g
   id="g3810">
</g>
<g
   id="g3812">
</g>
<g
   id="g3814">
</g>
<g
   id="g3816">
</g>
<g
   id="g3818">
</g>
<g
   id="g3820">
</g>
<g
   id="g3822">
</g>
<g
   id="g3824">
</g>
<g
   id="g3826">
</g>
<g
   id="g3828">
</g>
</svg>